<svg width="160" height="80" viewBox="0 0 160 80" fill="none" xmlns="http://www.w3.org/2000/svg">
<path d="M40.072 49.488C39.864 49.504 39.672 49.456 39.496 49.344C39.336 49.248 39.224 49.12 39.16 48.96C39.096 48.88 38.992 48.704 38.848 48.432C38.704 48.176 38.616 47.952 38.584 47.76C38.536 47.248 38.504 46.752 38.488 46.272C38.488 45.792 38.512 45.12 38.56 44.256C38.608 43.552 38.704 42.928 38.848 42.384C38.992 41.824 39.136 41.352 39.28 40.968C39.424 40.568 39.536 40.272 39.616 40.08C39.696 39.872 39.712 39.768 39.664 39.768C39.6 39.768 39.528 39.832 39.448 39.96C39.384 40.072 39.304 40.224 39.208 40.416C39.128 40.608 39.032 40.816 38.92 41.04C38.824 41.264 38.72 41.48 38.608 41.688C38.384 42.184 38.12 42.712 37.816 43.272C37.528 43.816 37.232 44.344 36.928 44.856C36.624 45.368 36.36 45.816 36.136 46.2C35.992 46.36 35.824 46.592 35.632 46.896C35.44 47.184 35.232 47.488 35.008 47.808C34.784 48.128 34.552 48.392 34.312 48.6C33.96 48.936 33.6 49.136 33.232 49.2C32.864 49.28 32.52 49.24 32.2 49.08C32.04 49.064 31.872 48.976 31.696 48.816C31.52 48.672 31.376 48.488 31.264 48.264C31.168 48.04 31.144 47.832 31.192 47.64C31.176 47.416 31.176 47.072 31.192 46.608C31.224 46.128 31.272 45.608 31.336 45.048C31.4 44.472 31.464 43.92 31.528 43.392C31.608 42.864 31.68 42.424 31.744 42.072C31.888 41.048 32.08 40 32.32 38.928C32.576 37.856 32.808 36.776 33.016 35.688C33.144 35.368 33.256 35.008 33.352 34.608C33.464 34.192 33.576 33.808 33.688 33.456C33.704 33.104 33.832 32.888 34.072 32.808C34.312 32.712 34.568 32.696 34.84 32.76C35.128 32.824 35.328 32.936 35.44 33.096C35.6 33.256 35.752 33.504 35.896 33.84C36.04 34.176 36 34.6 35.776 35.112C35.456 35.896 35.144 36.856 34.84 37.992C34.552 39.112 34.288 40.472 34.048 42.072C33.984 42.456 33.912 42.888 33.832 43.368C33.768 43.832 33.704 44.28 33.64 44.712C33.592 45.144 33.552 45.504 33.52 45.792C33.504 46.064 33.512 46.208 33.544 46.224C33.672 46.256 33.808 46.184 33.952 46.008C34.112 45.832 34.28 45.552 34.456 45.168C35.112 44.08 35.728 43 36.304 41.928C36.896 40.856 37.488 39.736 38.08 38.568C38.352 38.104 38.624 37.6 38.896 37.056C39.184 36.496 39.456 35.984 39.712 35.52C39.984 35.04 40.248 34.576 40.504 34.128C40.76 33.68 40.984 33.304 41.176 33C41.368 32.68 41.512 32.504 41.608 32.472C42.04 32.472 42.36 32.584 42.568 32.808C42.792 33.032 42.968 33.304 43.096 33.624C43.128 33.704 43.144 33.84 43.144 34.032C43.16 34.224 43.136 34.392 43.072 34.536C43.056 34.648 42.984 34.88 42.856 35.232C42.744 35.584 42.64 35.976 42.544 36.408C42.384 36.84 42.24 37.272 42.112 37.704C42 38.12 41.92 38.464 41.872 38.736C41.744 39.424 41.584 40.176 41.392 40.992C41.2 41.808 41.032 42.624 40.888 43.44C40.76 44.24 40.688 44.952 40.672 45.576C40.656 46.024 40.656 46.32 40.672 46.464C40.704 46.592 40.752 46.728 40.816 46.872C40.848 47 40.92 47.032 41.032 46.968C41.144 46.904 41.256 46.792 41.368 46.632C41.592 46.296 41.76 46.008 41.872 45.768C42 45.528 42.128 45.272 42.256 45C42.384 44.712 42.56 44.352 42.784 43.92C43.184 43.184 43.592 42.376 44.008 41.496C44.44 40.616 44.848 39.744 45.232 38.88C45.632 38.016 45.976 37.248 46.264 36.576C46.568 35.712 46.824 35.016 47.032 34.488C47.24 33.944 47.432 33.528 47.608 33.24C47.784 32.952 47.952 32.76 48.112 32.664C48.192 32.6 48.36 32.568 48.616 32.568C48.888 32.568 49.096 32.632 49.24 32.76C49.304 32.824 49.416 32.928 49.576 33.072C49.736 33.216 49.808 33.384 49.792 33.576C49.712 33.832 49.56 34.248 49.336 34.824C49.128 35.4 48.88 36.04 48.592 36.744C48.32 37.432 48.048 38.096 47.776 38.736C47.52 39.36 47.304 39.856 47.128 40.224C46.952 40.56 46.784 40.848 46.624 41.088C46.464 41.328 46.384 41.512 46.384 41.64C46.384 41.704 46.304 41.904 46.144 42.24C45.984 42.56 45.776 42.952 45.52 43.416C45.28 43.88 45.016 44.36 44.728 44.856C44.44 45.352 44.168 45.808 43.912 46.224C43.656 46.64 43.44 46.96 43.264 47.184C42.864 47.68 42.432 48.096 41.968 48.432C41.52 48.784 41.12 49.048 40.768 49.224C40.416 49.4 40.184 49.488 40.072 49.488ZM50.5294 47.352C50.3854 47.24 50.2254 47.096 50.0494 46.92C49.8894 46.744 49.8334 46.496 49.8814 46.176C49.9294 45.728 49.9934 45.336 50.0734 45C50.1534 44.648 50.2494 44.248 50.3614 43.8C50.3934 43.608 50.4734 43.28 50.6014 42.816C50.7454 42.352 50.9134 41.848 51.1054 41.304C51.2974 40.76 51.4974 40.248 51.7054 39.768C51.9134 39.272 52.0974 38.904 52.2574 38.664C52.4334 38.504 52.6894 38.424 53.0254 38.424C53.3774 38.424 53.6174 38.488 53.7454 38.616C53.9214 38.76 53.9774 39.016 53.9134 39.384C53.8494 39.736 53.6254 40.288 53.2414 41.04C53.1614 41.232 53.0574 41.44 52.9294 41.664C52.8174 41.872 52.7374 42.048 52.6894 42.192C52.6414 42.32 52.6574 42.376 52.7374 42.36C52.8334 42.184 53.0094 41.984 53.2654 41.76C53.5214 41.52 53.7934 41.288 54.0814 41.064C54.3694 40.84 54.6414 40.64 54.8974 40.464C55.1534 40.288 55.3294 40.176 55.4254 40.128C55.5534 40.048 55.6974 39.984 55.8574 39.936C56.0334 39.872 56.1534 39.824 56.2174 39.792C56.5854 39.616 56.9854 39.552 57.4174 39.6C57.8654 39.632 58.1374 39.768 58.2334 40.008C58.2494 40.136 58.2974 40.232 58.3774 40.296C58.4734 40.36 58.5214 40.392 58.5214 40.392C58.5854 40.392 58.6174 40.416 58.6174 40.464C58.6334 40.512 58.6414 40.536 58.6414 40.536C58.6414 40.648 58.5294 40.808 58.3054 41.016C58.0974 41.224 57.8654 41.336 57.6094 41.352C57.4014 41.368 57.2174 41.408 57.0574 41.472C56.8974 41.536 56.7054 41.616 56.4814 41.712C55.8734 42.064 55.3214 42.376 54.8254 42.648C54.3454 42.92 53.8494 43.336 53.3374 43.896C53.2254 44.024 53.1054 44.144 52.9774 44.256C52.8494 44.368 52.7214 44.528 52.5934 44.736C52.5134 44.816 52.4334 44.992 52.3534 45.264C52.2734 45.536 52.2014 45.8 52.1374 46.056C52.0894 46.296 52.0654 46.44 52.0654 46.488C52.0654 46.488 52.0414 46.568 51.9934 46.728C51.9454 46.872 51.8654 47.016 51.7534 47.16C51.5614 47.416 51.3694 47.576 51.1774 47.64C51.0014 47.704 50.7854 47.608 50.5294 47.352ZM61.3111 47.592C61.1831 47.464 61.0871 47.272 61.0231 47.016C60.9751 46.76 60.9591 46.512 60.9751 46.272C60.9911 46.016 61.0311 45.824 61.0951 45.696C61.0951 45.568 61.1111 45.472 61.1431 45.408C61.1911 45.328 61.2071 45.256 61.1911 45.192C61.1751 45.128 61.1911 45.016 61.2391 44.856C61.2871 44.696 61.3351 44.544 61.3831 44.4C61.4951 44.144 61.6231 43.816 61.7671 43.416C61.9111 43 62.0551 42.584 62.1991 42.168C62.3431 41.736 62.4631 41.368 62.5591 41.064C62.6551 40.744 62.7111 40.552 62.7271 40.488C62.7271 40.296 62.8551 40.192 63.1111 40.176C63.3031 40.112 63.5351 40.192 63.8071 40.416C64.0791 40.64 64.2951 40.88 64.4551 41.136C64.5831 41.264 64.6311 41.432 64.5991 41.64C64.5671 41.848 64.4631 42.144 64.2871 42.528C64.2231 42.656 64.1431 42.872 64.0471 43.176C63.9671 43.464 63.9111 43.704 63.8791 43.896C63.8151 44.024 63.7351 44.208 63.6391 44.448C63.5591 44.672 63.4871 44.888 63.4231 45.096C63.3911 45.176 63.3591 45.328 63.3271 45.552C63.2951 45.76 63.2551 45.976 63.2071 46.2C63.1591 46.424 63.0951 46.6 63.0151 46.728C62.8711 47.384 62.6151 47.768 62.2471 47.88C61.8951 47.992 61.5831 47.896 61.3111 47.592ZM63.9031 37.968C63.7271 37.84 63.5911 37.688 63.4951 37.512C63.4151 37.32 63.3671 37.152 63.3511 37.008C63.3511 36.864 63.3671 36.776 63.3991 36.744C63.5591 36.568 63.6951 36.336 63.8071 36.048C63.9351 35.76 64.0711 35.496 64.2151 35.256C64.2471 35.208 64.2871 35.144 64.3351 35.064C64.3991 34.968 64.4631 34.912 64.5271 34.896C64.7191 34.768 64.9831 34.776 65.3191 34.92C65.6711 35.064 65.9271 35.264 66.0871 35.52C66.2311 35.824 66.2711 36.136 66.2071 36.456C66.1591 36.776 65.9911 37.112 65.7031 37.464C65.4631 37.784 65.1591 37.992 64.7911 38.088C64.4231 38.168 64.1271 38.128 63.9031 37.968ZM71.47 48.144C71.246 48.08 71.022 47.968 70.798 47.808C70.574 47.648 70.342 47.464 70.102 47.256C69.91 47 69.774 46.768 69.694 46.56C69.614 46.336 69.566 46.08 69.55 45.792C69.55 45.488 69.55 45.104 69.55 44.64C69.55 44.448 69.582 44.176 69.646 43.824C69.726 43.472 69.806 43.104 69.886 42.72C69.982 42.336 70.07 42 70.15 41.712C70.23 41.408 70.278 41.208 70.294 41.112C70.342 40.904 70.262 40.784 70.054 40.752C69.846 40.72 69.614 40.712 69.358 40.728C69.118 40.728 68.958 40.704 68.878 40.656C68.814 40.64 68.782 40.56 68.782 40.416C68.782 40.256 68.782 40.176 68.782 40.176C68.782 40.112 68.75 40.072 68.686 40.056C68.622 40.024 68.566 39.968 68.518 39.888C68.486 39.824 68.526 39.704 68.638 39.528C68.75 39.352 68.894 39.248 69.07 39.216C69.214 39.184 69.43 39.16 69.718 39.144C70.006 39.112 70.294 39.056 70.582 38.976C70.886 38.88 71.118 38.736 71.278 38.544C71.422 38.192 71.582 37.816 71.758 37.416C71.934 37 72.102 36.64 72.262 36.336C72.422 36.016 72.534 35.816 72.598 35.736C72.87 35.592 73.15 35.536 73.438 35.568C73.726 35.584 73.95 35.72 74.11 35.976C74.19 36.088 74.254 36.168 74.302 36.216C74.366 36.264 74.39 36.336 74.374 36.432C74.374 36.528 74.31 36.704 74.182 36.96C74.07 37.2 73.878 37.576 73.606 38.088C73.526 38.248 73.454 38.392 73.39 38.52C73.326 38.632 73.294 38.688 73.294 38.688C73.358 38.704 73.454 38.712 73.582 38.712C73.71 38.712 73.87 38.704 74.062 38.688C74.238 38.656 74.43 38.632 74.638 38.616C74.846 38.584 75.03 38.584 75.19 38.616C75.558 38.616 75.83 38.72 76.006 38.928C76.182 39.136 76.278 39.4 76.294 39.72C76.326 39.896 76.262 40.048 76.102 40.176C75.942 40.304 75.646 40.368 75.214 40.368C75.07 40.368 74.862 40.376 74.59 40.392C74.318 40.408 74.038 40.424 73.75 40.44C73.462 40.456 73.214 40.48 73.006 40.512C72.814 40.528 72.718 40.552 72.718 40.584C72.67 40.616 72.59 40.744 72.478 40.968C72.382 41.176 72.278 41.432 72.166 41.736C72.07 42.04 71.982 42.328 71.902 42.6C71.79 43.144 71.71 43.672 71.662 44.184C71.614 44.696 71.606 45.144 71.638 45.528C71.686 45.896 71.782 46.16 71.926 46.32C72.07 46.464 72.286 46.464 72.574 46.32C72.878 46.16 73.158 45.976 73.414 45.768C73.702 45.528 73.95 45.456 74.158 45.552C74.366 45.632 74.494 45.808 74.542 46.08C74.606 46.336 74.534 46.616 74.326 46.92C74.134 47.224 73.862 47.48 73.51 47.688C73.158 47.896 72.798 48.04 72.43 48.12C72.062 48.216 71.742 48.224 71.47 48.144ZM81.1193 48.432C80.2393 48.432 79.5593 48.176 79.0793 47.664C78.6153 47.152 78.3833 46.368 78.3833 45.312C78.3833 44.736 78.4873 44.104 78.6953 43.416C78.9193 42.728 79.2073 42.056 79.5593 41.4C79.9273 40.744 80.3273 40.176 80.7593 39.696C81.1913 39.2 81.6233 38.856 82.0553 38.664C82.2153 38.584 82.3833 38.528 82.5593 38.496C82.7513 38.448 82.9353 38.424 83.1113 38.424C83.3033 38.424 83.5113 38.44 83.7353 38.472C83.9753 38.488 84.1993 38.536 84.4073 38.616C84.7753 38.728 85.0953 38.944 85.3673 39.264C85.6553 39.584 85.7993 40.048 85.7993 40.656C85.7993 40.816 85.7833 40.992 85.7513 41.184C85.7193 41.36 85.6633 41.536 85.5833 41.712C85.3753 42.24 85.0553 42.744 84.6233 43.224C84.2073 43.704 83.7673 44.04 83.3033 44.232C83.1753 44.296 83.0473 44.344 82.9193 44.376C82.8073 44.392 82.6873 44.4 82.5593 44.4C82.2233 44.4 81.9193 44.352 81.6473 44.256C81.3913 44.16 81.1513 44.032 80.9273 43.872L80.7353 43.704L80.6153 43.944C80.5033 44.248 80.4233 44.504 80.3753 44.712C80.3433 44.92 80.3273 45.072 80.3273 45.168C80.3273 45.36 80.3353 45.56 80.3513 45.768C80.3673 45.96 80.4153 46.12 80.4953 46.248C80.5593 46.328 80.6393 46.392 80.7353 46.44C80.8473 46.488 80.9833 46.512 81.1433 46.512C81.2393 46.512 81.3273 46.512 81.4073 46.512C81.5033 46.496 81.5833 46.48 81.6473 46.464C81.9353 46.4 82.1673 46.296 82.3433 46.152C82.5353 45.992 82.7353 45.856 82.9433 45.744L83.0393 45.696L83.0153 45.624C83.2873 45.48 83.4713 45.392 83.5673 45.36C83.6633 45.312 83.7353 45.272 83.7833 45.24C83.8473 45.176 83.9193 45.144 83.9993 45.144C84.2233 45.112 84.4393 45.176 84.6473 45.336C84.8713 45.48 84.9833 45.664 84.9833 45.888C84.9833 45.984 84.9113 46.136 84.7673 46.344C84.6393 46.552 84.4713 46.76 84.2633 46.968C84.0713 47.16 83.8713 47.312 83.6633 47.424C83.6153 47.44 83.5673 47.464 83.5193 47.496C83.4713 47.512 83.4233 47.536 83.3753 47.568H83.3993C83.2553 47.76 83.1113 47.856 82.9673 47.856H82.7753C82.7113 47.968 82.5033 48.088 82.1513 48.216C81.7993 48.36 81.4553 48.432 81.1193 48.432ZM82.3673 42.648C82.5113 42.648 82.6393 42.624 82.7513 42.576C82.8793 42.528 82.9993 42.472 83.1113 42.408C83.4953 42.136 83.7433 41.784 83.8553 41.352C83.9673 40.92 83.9273 40.592 83.7353 40.368C83.7033 40.32 83.6633 40.288 83.6153 40.272C83.5673 40.24 83.5113 40.224 83.4473 40.224C83.2713 40.224 83.0713 40.28 82.8473 40.392C82.6393 40.504 82.4313 40.664 82.2233 40.872C82.0153 41.08 81.8233 41.328 81.6473 41.616L81.3353 42.12C81.3673 42.104 81.3913 42.096 81.4073 42.096C81.4393 42.08 81.4633 42.072 81.4793 42.072C81.6233 42.072 81.7193 42.12 81.7673 42.216C81.8153 42.312 81.8713 42.408 81.9353 42.504C82.0153 42.6 82.1593 42.648 82.3673 42.648ZM111.435 48.888C111.435 48.888 111.387 48.84 111.291 48.744C111.211 48.664 111.035 48.56 110.763 48.432C110.475 48.128 110.283 47.664 110.187 47.04C110.107 46.416 110.091 45.72 110.139 44.952C110.107 44.568 110.107 44.096 110.139 43.536C110.187 42.96 110.251 42.368 110.331 41.76C110.427 41.152 110.523 40.568 110.619 40.008C110.731 39.448 110.827 38.984 110.907 38.616C111.115 37.768 111.299 37.024 111.459 36.384C111.635 35.744 111.723 35.368 111.723 35.256C111.627 35.432 111.483 35.68 111.291 36C111.115 36.32 110.859 36.776 110.523 37.368C110.315 37.704 110.091 38.072 109.851 38.472C109.627 38.872 109.483 39.112 109.419 39.192C109.259 39.4 109.099 39.688 108.939 40.056C108.779 40.408 108.515 40.936 108.147 41.64C107.587 42.472 107.107 43.104 106.707 43.536C106.323 43.968 105.979 44.256 105.675 44.4C105.387 44.528 105.099 44.568 104.811 44.52C104.347 44.408 104.035 44.192 103.875 43.872C103.715 43.536 103.603 43.152 103.539 42.72C103.507 42.288 103.499 41.936 103.515 41.664C103.547 41.376 103.547 41.168 103.515 41.04C103.547 40.88 103.579 40.712 103.611 40.536C103.643 40.344 103.667 40.2 103.683 40.104C103.683 40.04 103.699 39.896 103.731 39.672C103.779 39.448 103.811 39.224 103.827 39C103.875 38.696 103.939 38.344 104.019 37.944C104.099 37.528 104.171 37.152 104.235 36.816C104.299 36.48 104.315 36.272 104.283 36.192C104.203 36.352 104.107 36.52 103.995 36.696C103.883 36.872 103.803 37 103.755 37.08C103.483 37.448 103.163 38.016 102.795 38.784C102.427 39.536 101.931 40.552 101.307 41.832C101.259 42.184 101.115 42.632 100.875 43.176C100.651 43.704 100.451 44.176 100.275 44.592C100.163 44.896 100.011 45.28 99.8194 45.744C99.6434 46.192 99.4594 46.616 99.2674 47.016C99.0914 47.416 98.9474 47.696 98.8354 47.856C98.6434 48.224 98.4834 48.424 98.3554 48.456C98.2274 48.504 97.9634 48.376 97.5634 48.072C97.3074 47.832 97.0914 47.6 96.9154 47.376C96.7554 47.152 96.7554 46.888 96.9154 46.584C97.0274 46.408 97.1634 46.168 97.3234 45.864C97.4834 45.544 97.6274 45.224 97.7554 44.904C97.8994 44.584 97.9794 44.344 97.9954 44.184C98.0114 44.12 98.0594 44.008 98.1394 43.848C98.2354 43.688 98.3634 43.512 98.5234 43.32C98.5074 43.256 98.5794 43.016 98.7394 42.6C98.8994 42.168 99.1154 41.68 99.3874 41.136C99.4354 41.056 99.4674 40.976 99.4834 40.896C99.5154 40.816 99.5394 40.736 99.5554 40.656C99.6194 40.576 99.6834 40.48 99.7474 40.368C99.8114 40.256 99.8754 40.096 99.9394 39.888C99.9714 39.744 100.035 39.56 100.131 39.336C100.227 39.112 100.315 38.912 100.395 38.736C100.459 38.592 100.531 38.472 100.611 38.376C100.707 38.264 100.787 38.152 100.851 38.04C100.915 37.992 100.971 37.912 101.019 37.8C101.067 37.688 101.123 37.6 101.187 37.536C101.251 37.344 101.371 37.104 101.547 36.816C101.739 36.512 101.939 36.176 102.147 35.808C102.371 35.44 102.563 35.072 102.723 34.704C102.851 34.624 102.963 34.512 103.059 34.368C103.155 34.224 103.235 34.072 103.299 33.912C103.299 33.912 103.339 33.824 103.419 33.648C103.515 33.472 103.611 33.32 103.707 33.192C103.787 33.08 103.907 32.92 104.067 32.712C104.227 32.504 104.379 32.312 104.523 32.136C104.683 31.944 104.787 31.84 104.835 31.824C104.931 31.808 105.099 31.856 105.339 31.968C105.595 32.08 105.827 32.216 106.035 32.376C106.243 32.536 106.347 32.696 106.347 32.856C106.379 33.032 106.387 33.288 106.371 33.624C106.371 33.96 106.363 34.304 106.347 34.656C106.331 34.992 106.299 35.28 106.251 35.52C106.219 35.872 106.171 36.28 106.107 36.744C106.043 37.208 105.979 37.656 105.915 38.088C105.851 38.52 105.795 38.872 105.747 39.144C105.667 39.736 105.603 40.184 105.555 40.488C105.507 40.776 105.483 40.92 105.483 40.92C105.515 40.984 105.531 41.072 105.531 41.184C105.547 41.296 105.563 41.4 105.579 41.496L105.603 41.688L105.867 41.304C106.155 40.936 106.379 40.616 106.539 40.344C106.699 40.072 106.859 39.808 107.019 39.552C107.019 39.472 107.043 39.392 107.091 39.312C107.139 39.216 107.195 39.12 107.259 39.024C107.355 38.944 107.459 38.816 107.571 38.64C107.683 38.448 107.731 38.28 107.715 38.136C107.875 37.896 108.083 37.576 108.339 37.176C108.611 36.776 108.899 36.344 109.203 35.88C109.507 35.4 109.803 34.944 110.091 34.512C110.395 34.064 110.659 33.68 110.883 33.36C111.123 33.04 111.299 32.832 111.411 32.736C111.763 32.512 112.155 32.4 112.587 32.4C113.019 32.384 113.363 32.512 113.619 32.784C113.827 33.008 113.939 33.264 113.955 33.552C113.987 33.84 113.955 34.136 113.859 34.44C113.651 35.128 113.507 35.768 113.427 36.36C113.347 36.952 113.315 37.36 113.331 37.584C113.267 37.728 113.211 37.888 113.163 38.064C113.131 38.224 113.107 38.368 113.091 38.496C113.091 38.656 113.059 38.824 112.995 39C112.947 39.16 112.883 39.272 112.803 39.336C112.851 39.48 112.875 39.672 112.875 39.912C112.891 40.136 112.883 40.344 112.851 40.536C112.595 42.168 112.459 43.472 112.443 44.448C112.427 45.408 112.483 46.104 112.611 46.536C112.739 46.952 112.875 47.176 113.019 47.208C113.083 47.192 113.115 47.216 113.115 47.28C113.131 47.344 113.123 47.44 113.091 47.568C113.091 47.696 113.027 47.84 112.899 48C112.787 48.176 112.667 48.328 112.539 48.456C112.427 48.6 112.355 48.696 112.323 48.744C112.227 48.904 112.139 48.992 112.059 49.008C111.995 49.024 111.787 48.984 111.435 48.888ZM118.816 47.784C118.192 47.528 117.76 47.112 117.52 46.536C117.28 45.96 117.216 45.192 117.328 44.232C117.36 43.736 117.344 43.408 117.28 43.248C117.216 43.072 117.096 42.904 116.92 42.744C116.872 42.68 116.76 42.576 116.584 42.432C116.408 42.272 116.328 42.152 116.344 42.072C116.328 41.96 116.352 41.824 116.416 41.664C116.48 41.488 116.536 41.392 116.584 41.376C116.696 41.328 116.808 41.272 116.92 41.208C117.048 41.144 117.144 41.128 117.208 41.16C117.272 41.16 117.368 41.2 117.496 41.28C117.64 41.36 117.712 41.432 117.712 41.496C117.776 41.608 117.872 41.56 118 41.352C118.144 41.144 118.296 40.88 118.456 40.56C118.616 40.304 118.816 40.064 119.056 39.84C119.296 39.616 119.536 39.416 119.776 39.24C120.032 39.048 120.248 38.904 120.424 38.808C120.504 38.776 120.656 38.728 120.88 38.664C121.12 38.6 121.368 38.552 121.624 38.52C121.88 38.472 122.072 38.456 122.2 38.472C122.488 38.488 122.792 38.608 123.112 38.832C123.432 39.056 123.68 39.264 123.856 39.456C124.064 39.6 124.2 39.824 124.264 40.128C124.344 40.416 124.376 40.72 124.36 41.04C124.344 41.36 124.28 41.632 124.168 41.856C124.12 42.016 123.952 42.24 123.664 42.528C123.376 42.816 123.056 43.096 122.704 43.368C122.368 43.624 122.08 43.8 121.84 43.896C121.632 43.944 121.384 43.984 121.096 44.016C120.808 44.032 120.536 44.032 120.28 44.016C120.04 43.984 119.872 43.944 119.776 43.896C119.664 43.832 119.568 43.856 119.488 43.968C119.424 44.064 119.368 44.336 119.32 44.784C119.304 44.96 119.304 45.112 119.32 45.24C119.352 45.368 119.384 45.464 119.416 45.528C119.528 45.72 119.64 45.864 119.752 45.96C119.864 46.04 120.072 46.064 120.376 46.032C120.68 46 120.984 45.816 121.288 45.48C121.608 45.128 121.896 44.848 122.152 44.64C122.216 44.528 122.352 44.456 122.56 44.424C122.784 44.376 123.048 44.392 123.352 44.472C123.528 44.584 123.608 44.76 123.592 45C123.592 45.24 123.464 45.592 123.208 46.056C123.16 46.168 123.024 46.336 122.8 46.56C122.592 46.768 122.36 46.984 122.104 47.208C121.864 47.416 121.664 47.568 121.504 47.664C121.024 47.92 120.552 48.04 120.088 48.024C119.624 48.008 119.2 47.928 118.816 47.784ZM120.592 42.384C120.832 42.32 121.032 42.256 121.192 42.192C121.368 42.128 121.536 42.024 121.696 41.88C121.856 41.736 122.04 41.52 122.248 41.232C122.312 41.056 122.344 40.904 122.344 40.776C122.36 40.648 122.352 40.568 122.32 40.536C122.192 40.408 122.048 40.368 121.888 40.416C121.744 40.448 121.584 40.528 121.408 40.656C121.296 40.704 121.136 40.808 120.928 40.968C120.736 41.112 120.544 41.28 120.352 41.472C120.176 41.648 120.032 41.816 119.92 41.976C119.824 42.12 119.808 42.208 119.872 42.24C119.84 42.304 119.928 42.344 120.136 42.36C120.36 42.376 120.512 42.384 120.592 42.384ZM129.999 44.136C129.551 44.216 129.199 44.032 128.943 43.584C128.687 43.12 128.703 42.312 128.991 41.16C129.087 40.968 129.167 40.784 129.231 40.608C129.295 40.416 129.327 40.264 129.327 40.152C129.391 39.944 129.471 39.704 129.567 39.432C129.679 39.144 129.791 38.88 129.903 38.64C130.015 38.384 130.095 38.216 130.143 38.136C130.207 38.136 130.271 38.08 130.335 37.968C130.415 37.856 130.455 37.744 130.455 37.632C130.455 37.504 130.479 37.36 130.527 37.2C130.591 37.04 130.655 36.928 130.719 36.864C130.719 36.784 130.751 36.696 130.815 36.6C130.879 36.504 130.911 36.424 130.911 36.36C130.911 36.296 130.927 36.24 130.959 36.192C131.007 36.144 131.031 36.088 131.031 36.024C131.175 35.768 131.359 35.392 131.583 34.896C131.823 34.384 132.055 33.848 132.279 33.288C132.519 32.728 132.719 32.232 132.879 31.8C133.039 31.368 133.119 31.104 133.119 31.008C133.151 30.88 133.199 30.76 133.263 30.648C133.327 30.536 133.423 30.496 133.551 30.528C133.615 30.48 133.711 30.456 133.839 30.456C133.967 30.44 134.063 30.432 134.127 30.432C134.127 30.432 134.199 30.464 134.343 30.528C134.487 30.592 134.615 30.688 134.727 30.816C134.855 30.928 134.927 31.08 134.943 31.272C134.959 31.464 134.967 31.656 134.967 31.848C134.951 32.152 134.839 32.496 134.631 32.88C134.423 33.264 134.191 33.688 133.935 34.152C133.775 34.456 133.615 34.744 133.455 35.016C133.311 35.288 133.239 35.456 133.239 35.52C133.239 35.584 133.207 35.68 133.143 35.808C133.079 35.936 133.007 36.096 132.927 36.288C132.831 36.448 132.735 36.64 132.639 36.864C132.559 37.088 132.487 37.296 132.423 37.488C132.359 37.664 132.327 37.776 132.327 37.824C132.311 37.888 132.287 37.952 132.255 38.016C132.239 38.08 132.199 38.144 132.135 38.208C132.071 38.208 132.031 38.256 132.015 38.352C132.015 38.432 132.015 38.472 132.015 38.472C132.015 38.536 131.975 38.688 131.895 38.928C131.831 39.152 131.719 39.424 131.559 39.744C131.255 40.592 131.039 41.272 130.911 41.784C130.783 42.28 130.703 42.704 130.671 43.056C130.639 43.44 130.551 43.704 130.407 43.848C130.263 43.976 130.127 44.072 129.999 44.136ZM128.727 47.856C128.391 47.984 128.111 48.04 127.887 48.024C127.663 48.024 127.415 47.92 127.143 47.712C126.823 47.392 126.711 47.072 126.807 46.752C126.919 46.416 127.207 46.096 127.671 45.792C127.991 45.584 128.223 45.48 128.367 45.48C128.527 45.464 128.759 45.52 129.063 45.648C129.607 45.984 129.847 46.36 129.783 46.776C129.719 47.176 129.367 47.536 128.727 47.856Z" fill="white"/>
<path d="M6.72398 58.4132C5.51086 63.9451 3.51718 69.5025 2.65465 75.1089C2.51705 76.0033 1.30542 78.3158 3.30118 77.4288C6.06293 76.2014 10.0521 74.7816 12.3526 72.9411C17.9672 68.4494 24.1491 71.4199 31.0259 71.4199C48.6977 71.4199 66.3695 71.4199 84.0413 71.4199C102.524 71.4199 123.234 72.3906 139.377 61.836C152.018 53.5705 162.903 39.0082 154.741 23.5007C152.687 19.5969 149.481 17.3343 145.842 15.1338C139.595 11.3565 132.911 6.89741 125.685 5.16965C116.099 2.87717 106.507 1.59473 96.6676 1.59473C86.133 1.59473 75.5984 1.59473 65.0637 1.59473C61.0959 1.59473 56.4983 1.60423 52.7416 2.81172C47.8673 4.37848 41.7323 4.2037 37.1869 6.72893C25.7577 13.0785 12.4961 17.7372 6.19155 30.3463C2.55346 37.6224 1.54773 49.4299 5.35486 57.0441" stroke="white" stroke-width="3" stroke-linecap="round"/>
</svg>
